PathFileType	4	(X/Y/Z)	/Users/niels/Desktop/University/Third Semester/Perception and Action/Exam/Gymnastics Motion Tracking/Code for Gym Tracking/Analyzed Data/Webcam_Backflip/temp_id5_4_trajectory_Sports2D/temp_id5_4_trajectory_Sports2D_px_person00.trc
DataRate	CameraRate	NumFrames	NumMarkers	Units	OrigDataRate	OrigDataStartFrame	OrigNumFrames
29.8125	29.8125	12	22	m	29.8125	140	160
Frame#	Time	Hip			RHip			RKnee			RAnkle			RBigToe			RSmallToe			RHeel			LHip			LKnee			LAnkle			LBigToe			LSmallToe			LHeel			Neck			Head			Nose			RShoulder			RElbow			RWrist			LShoulder			LElbow			LWrist		
		X1	Y1	Z1	X2	Y2	Z2	X3	Y3	Z3	X4	Y4	Z4	X5	Y5	Z5	X6	Y6	Z6	X7	Y7	Z7	X8	Y8	Z8	X9	Y9	Z9	X10	Y10	Z10	X11	Y11	Z11	X12	Y12	Z12	X13	Y13	Z13	X14	Y14	Z14	X15	Y15	Z15	X16	Y16	Z16	X17	Y17	Z17	X18	Y18	Z18	X19	Y19	Z19	X20	Y20	Z20	X21	Y21	Z21	X22	Y22	Z22
140	4.696016771488469	0.9057709835357876	-0.31183630578763033	0.0	0.9011771855023017	-0.3088997730048558	0.0	0.8091934628886108	-0.29504245195327994	0.0	0.8712393535671462	-0.22689271715806336	0.0	0.8467632614369531	-0.2011071596405349	0.0	0.8564036317335575	-0.20084583331518882	0.0	0.8791824994091118	-0.22272798374095573	0.0	0.9054577923001383	-0.3153986856342988	0.0	0.8273236476718604	-0.30497685041895234	0.0	0.873820822361695	-0.24007189597723264	0.0	0.8542157394590612	-0.22744510136391022	0.0	0.8571400760325942	-0.23045686321617723	0.0	0.8868000765093986	-0.22742818753346605	0.0	0.8477128625562125	-0.4227637834350438	0.0	0.827454084322188	-0.4737124345340484	0.0	0.8179218181284406	-0.44608077554898606	0.0	0.8500305153212769	-0.3962488262778514	0.0	0.8589722968573033	-0.324636020414472	0.0	0.8364799882012328	-0.2992301164919327	0.0	0.8611681530596159	-0.4168070199214838	0.0	0.8758959472570957	-0.366349506586436	0.0	0.8947732819411477	-0.3843727135040202	0.0
141	4.729559748427672	0.8920363253174981	-0.3021471969554395	0.0	0.8843347957705902	-0.3012160895154301	0.0	0.7938684587608322	-0.32242213679066817	0.0	0.8248977873538931	-0.24384127063091793	0.0	0.7927030271937123	-0.23311119959862292	0.0	0.8007425195097542	-0.2301740876130769	0.0	0.8299858826149298	-0.23531991597824362	0.0	0.8957277190339473	-0.30627410801648497	0.0	0.8156332042018773	-0.3299640298441255	0.0	0.8321953409306185	-0.2571270553989822	0.0	0.8008954491167258	-0.2611494838445572	0.0	0.806240463217757	-0.26263419438603036	0.0	0.8415043090729534	-0.2392728781344778	0.0	0.8707788800672203	-0.4307087237889454	0.0	0.8653455236221308	-0.48843635981651157	0.0	0.8481958013644539	-0.46539077665308587	0.0	0.8663949216578621	-0.4042038464236668	0.0	0.8520860109507583	-0.3324920140877199	0.0	0.8232052752191119	-0.3182935348287034	0.0	0.8843882112716122	-0.4220299350135379	0.0	0.8903398452708939	-0.3780059418919334	0.0	0.9080459509849023	-0.4016313471793251	0.0
142	4.763102725366876	0.8756914408963128	-0.3002354551533899	0.0	0.8652928438454579	-0.3008437656087768	0.0	0.7857810798525222	-0.35402140623961204	0.0	0.7818754845418165	-0.27815015517976965	0.0	0.7484508815860175	-0.28554594561504343	0.0	0.7532186346648962	-0.2801913439314214	0.0	0.7828131506999508	-0.2665939644572026	0.0	0.8835218978779505	-0.30468412403520667	0.0	0.8075404139229577	-0.3578794544459645	0.0	0.7951322155019084	-0.2893349679048459	0.0	0.755970336002242	-0.3092690023966661	0.0	0.7633964301793613	-0.30698149226630395	0.0	0.7987929771642817	-0.26886093049647647	0.0	0.8925242449246696	-0.43281592374220507	0.0	0.9019522790799906	-0.49321798766500713	0.0	0.8796205207824123	-0.4755708103216585	0.0	0.8813371289358305	-0.4089800056815508	0.0	0.8461931638814241	-0.3453523671466497	0.0	0.815360452340471	-0.34592557858659123	0.0	0.9058800457708002	-0.4218435746795547	0.0	0.9065304218861954	-0.3898271146377415	0.0	0.9239251507623863	-0.41381708658802613	0.0
143	4.796645702306079	0.8582407826577371	-0.30701984764421153	0.0	0.8458427660931616	-0.3084476570024406	0.0	0.7834942218758384	-0.3877292637135676	0.0	0.7467366755178132	-0.32864902443904936	0.0	0.7188546770245771	-0.3543048184396768	0.0	0.7192538744504922	-0.34734696949266114	0.0	0.7426566515416037	-0.3160824682165107	0.0	0.8697932897209891	-0.31161301850406875	0.0	0.8023998538179267	-0.38757018255032766	0.0	0.766192576727481	-0.33617917275200326	0.0	0.7250364927967481	-0.36883908958776884	0.0	0.7336060622653565	-0.3603236434614135	0.0	0.762646762779181	-0.3158922133506181	0.0	0.9101671601342722	-0.4302486012611415	0.0	0.9337892330699749	-0.4892144022707781	0.0	0.908018693607534	-0.4767569466515536	0.0	0.8930525932635535	-0.4112019347719753	0.0	0.841982559037139	-0.3631627519652025	0.0	0.8136356420071766	-0.3805579144621278	0.0	0.9232825173992065	-0.4174573617035083	0.0	0.9218261444457364	-0.3980886625047556	0.0	0.9407887251477289	-0.41856403496319927	0.0
144	4.830188679245282	0.8407350921855566	-0.3225977091548374	0.0	0.8273968435759947	-0.3242254749655432	0.0	0.7845960214032065	-0.4226299487845349	0.0	0.7233978941685654	-0.39217785750987894	0.0	0.7063414587096108	-0.4323946398971521	0.0	0.7023837748255627	-0.4251565658268201	0.0	0.7143179355936883	-0.3810826123744227	0.0	0.8549837544575991	-0.3266737814434561	0.0	0.7994593219074827	-0.4189438559365655	0.0	0.7470703655310659	-0.3950009214894844	0.0	0.7109952229310877	-0.43638408329002815	0.0	0.7193005655705885	-0.42024889806838656	0.0	0.7359388951296864	-0.3778812803725937	0.0	0.9217264998730765	-0.4251322791663049	0.0	0.9585062473013544	-0.4788092576382629	0.0	0.9299846329394242	-0.4709718553709947	0.0	0.900358601034041	-0.4120894400691466	0.0	0.840234375839005	-0.3852926529885805	0.0	0.8186978045279096	-0.418934090189412	0.0	0.9347611510466955	-0.4107310403581175	0.0	0.9345411548746639	-0.3998883225267551	0.0	0.9571659952406357	-0.4158771833484975	0.0
145	4.863731656184486	0.8237485175023352	-0.3466946296530677	0.0	0.8109987011790083	-0.34815221801685686	0.0	0.7867023216626235	-0.458953878328715	0.0	0.7136559742141521	-0.4637529473902375	0.0	0.7100220634986885	-0.5119651834856989	0.0	0.7027025523680596	-0.5058425639166858	0.0	0.7006058978492206	-0.45645972928848993	0.0	0.8388565410565195	-0.349321886906755	0.0	0.7970232467177214	-0.4528555633634271	0.0	0.7367853748857857	-0.46151090973516296	0.0	0.7124793410319773	-0.5072847708225862	0.0	0.7188904020778334	-0.4847878498842655	0.0	0.7194818191524355	-0.45006980556192266	0.0	0.9261277419502523	-0.41977881444608056	0.0	0.9746052072532488	-0.4649215625063536	0.0	0.9435053509354442	-0.46149509629507907	0.0	0.9028306520349031	-0.4130497469383272	0.0	0.8418756099304687	-0.4102177454126175	0.0	0.8314516398551601	-0.4561446585994856	0.0	0.9387136311718872	-0.40376065071663797	0.0	0.9435814504969726	-0.396184253047489	0.0	0.9702985907750412	-0.40874676449420505	0.0
146	4.897274633123689	0.8078496632584957	-0.37875167272543947	0.0	0.7974392268606333	-0.37990155581327206	0.0	0.7884497492055553	-0.49743797350580204	0.0	0.7163362299209429	-0.5376003300539358	0.0	0.7257839505482536	-0.586920054490432	0.0	0.7165459665616922	-0.5828556694838982	0.0	0.7009792866058006	-0.5356387708584799	0.0	0.8213004259670993	-0.37944110494923394	0.0	0.79332568263015	-0.4904185893088451	0.0	0.7328017013675409	-0.5309441895406661	0.0	0.7245362651008465	-0.5766583265927192	0.0	0.7275696775358075	-0.5519789771999721	0.0	0.712259148820195	-0.5263585424183	0.0	0.9231819369737368	-0.4163325540038488	0.0	0.9812037539213024	-0.45038688848537606	0.0	0.9480582554050783	-0.4519094549311601	0.0	0.900652619437236	-0.4154580926495669	0.0	0.8474812161839366	-0.43568575501328205	0.0	0.851789496141224	-0.48707105378073196	0.0	0.9339643926914609	-0.3988643852983186	0.0	0.9468605411703905	-0.39172139313150545	0.0	0.9762133319575531	-0.4019728150681544	0.0
147	4.930817610062892	0.7939733630569766	-0.41760101127107374	0.0	0.7872188594438726	-0.41847265013476165	0.0	0.789698791425673	-0.5385193807989621	0.0	0.7276708578186347	-0.6086754096765878	0.0	0.7476517525762126	-0.654014640330294	0.0	0.7378310508075093	-0.652291515917746	0.0	0.7116547010840508	-0.6124204874507811	0.0	0.8034532454071307	-0.41657061889980695	0.0	0.7880888107086574	-0.5319093316771698	0.0	0.7327945751185848	-0.5989279461236447	0.0	0.7411046016329111	-0.6408488755718694	0.0	0.7398745762171303	-0.6187521552254311	0.0	0.7122431825095709	-0.6009041912826324	0.0	0.9134453947002463	-0.41673861247307986	0.0	0.9781098817634808	-0.4376871602682763	0.0	0.9442776050165026	-0.44523156559452876	0.0	0.8941313150035213	-0.42076060743417965	0.0	0.8563713938642524	-0.45939957518892555	0.0	0.8769768571133509	-0.5079547654351697	0.0	0.9204358151245795	-0.3985629774400661	0.0	0.941756442618724	-0.3922167324357802	0.0	0.9724953368498139	-0.39962328983179707	0.0
148	4.964360587002096	0.7831112668882314	-0.4612378234169747	0.0	0.7803309906054385	-0.46193740736703526	0.0	0.7909263138115927	-0.5818721921760374	0.0	0.742580469134848	-0.6736886897811271	0.0	0.7696778345183174	-0.7124682290422886	0.0	0.7601176466174198	-0.7128280272083309	0.0	0.7270435019578271	-0.682360117796885	0.0	0.7875716585479713	-0.4591291974450068	0.0	0.782595373483323	-0.5763913700941949	0.0	0.7351100410312891	-0.6621803506160493	0.0	0.757253506876061	-0.6983797212814816	0.0	0.7517521339408763	-0.681202624966011	0.0	0.7168423505957608	-0.669526730632368	0.0	0.8980779035288066	-0.4225558367346487	0.0	0.9659493080748258	-0.42883407683384256	0.0	0.9335107407488425	-0.4433719918753589	0.0	0.8834357686939983	-0.43029426107713836	0.0	0.8662597037710899	-0.47974908813585615	0.0	0.901794821585077	-0.5172377871957434	0.0	0.8995761890461192	-0.4051364778206261	0.0	0.9274452113846403	-0.40196118603009373	0.0	0.9601363803307642	-0.4029997101949551	0.0
149	4.997903563941299	0.7756591342045235	-0.506922522187509	0.0	0.7761334297785412	-0.5075801738084855	0.0	0.7925572318818902	-0.6262364657782263	0.0	0.7562947433073451	-0.7309566236420979	0.0	0.7876260597419438	-0.7628771418685139	0.0	0.7785090909858096	-0.764709888509106	0.0	0.741739761781452	-0.7428952631533134	0.0	0.7756043008758575	-0.504481105047402	0.0	0.7783074334134311	-0.6220559082891741	0.0	0.7382988657752328	-0.7187188098030951	0.0	0.7700050531824676	-0.749637010734248	0.0	0.760946198756773	-0.7366350089760385	0.0	0.7232102966237501	-0.7300073224462381	0.0	0.8787183304131652	-0.43450473744671697	0.0	0.946162411860309	-0.42522623880801286	0.0	0.917456495779563	-0.4470600871305141	0.0	0.8688253971152595	-0.4446832854396548	0.0	0.8740556331418274	-0.496086601161796	0.0	0.9204589315155566	-0.5159615144850692	0.0	0.8740755079713735	-0.4197788094238751	0.0	0.9056719654889821	-0.42278952582158047	0.0	0.9426513509195693	-0.4113190246945268	0.0
150	5.031446540880502	0.7711107439389049	-0.5515050030485235	0.0	0.7735219539226945	-0.5522620915520967	0.0	0.7946195532438585	-0.6693610424558852	0.0	0.7657947685051365	-0.7795112857210204	0.0	0.7998004198095671	-0.8058765154091649	0.0	0.7907573600388977	-0.8083950993242071	0.0	0.7522067852643735	-0.7927617523854681	0.0	0.7680317064935406	-0.5494247964400728	0.0	0.7757426688267155	-0.6664266970089902	0.0	0.7410219269285573	-0.7672580133151518	0.0	0.7781252793387556	-0.7951892051135911	0.0	0.7664297774176299	-0.7841244661587806	0.0	0.7289073488957284	-0.7813213855952477	0.0	0.857251268519678	-0.45199829557198773	0.0	0.920833747054749	-0.4274168424811125	0.0	0.8979382300528445	-0.45597050213796037	0.0	0.8509888774692052	-0.46336996066235364	0.0	0.8772336696980806	-0.5085420362232053	0.0	0.9289906496657874	-0.5074568260402624	0.0	0.8470161807789858	-0.44186481602593236	0.0	0.8793797341085986	-0.4535048224988576	0.0	0.9242660927631112	-0.42377968923926673	0.0
151	5.064989517819706	0.7682733068130667	-0.5917914762676791	0.0	0.7712933906921229	-0.5927575033324083	0.0	0.7967127366678227	-0.708169113792212	0.0	0.7703787763849028	-0.8184407542474378	0.0	0.8065758005551635	-0.841108080418245	0.0	0.7971175154155026	-0.8435645775175147	0.0	0.7574165770964463	-0.8314755359984477	0.0	0.7638682608148287	-0.590610312578129	0.0	0.7744900500233356	-0.706395979258455	0.0	0.7424636649183873	-0.8065696919388431	0.0	0.7817229429552116	-0.8341920225093047	0.0	0.7679659798115251	-0.8232098309846064	0.0	0.7325652230591612	-0.8228115204026574	0.0	0.835527363921086	-0.4729738559188438	0.0	0.8925848057020719	-0.4347625146347692	0.0	0.8768485002090283	-0.46874894106948684	0.0	0.831230873815122	-0.484507990965646	0.0	0.8747381644419342	-0.5176887962842288	0.0	0.9266913354558403	-0.4961052228902444	0.0	0.8211052859710795	-0.46869394603215153	0.0	0.8513712206419954	-0.4895376445175198	0.0	0.9081669511939213	-0.43936849131787703	0.0
